
<svg width="32px" height="32px" viewBox="0 0 32 32" version="1.1" xmlns="http://www.w3.org/2000/svg" xmlns:xlink="http://www.w3.org/1999/xlink">
    <g id="页面-1" stroke="none" stroke-width="1" fill="none" fill-rule="evenodd">
        <g id="tip_warning" fill-rule="nonzero">
            <circle id="椭圆形" fill="#FFFFFF" cx="16" cy="16" r="12"></circle>
            <path d="M16,0 C7.1625,0 0,7.1625 0,16 C0,24.8375 7.1625,32 16,32 C24.8375,32 32,24.8375 32,16 C32,7.1625 24.8375,0 16,0 Z M14.75,7.21875 C14.75,6.528125 15.309375,5.96875 16,5.96875 C16.690625,5.96875 17.25,6.528125 17.25,7.21875 L17.25,18.75 C17.25,19.440625 16.690625,20 16,20 C15.309375,20 14.75,19.440625 14.75,18.75 L14.75,7.21875 Z M16,24.8125 C15.221875,24.8125 14.59375,24.184375 14.59375,23.40625 C14.59375,22.628125 15.221875,22 16,22 C16.778125,22 17.40625,22.628125 17.40625,23.40625 C17.40625,24.18125 16.778125,24.8125 16,24.8125 Z" id="形状" fill="#FCA627"></path>
        </g>
    </g>
</svg>