
<svg width="32px" height="32px" viewBox="0 0 32 32" version="1.1" xmlns="http://www.w3.org/2000/svg" xmlns:xlink="http://www.w3.org/1999/xlink">
    <g id="页面-1" stroke="none" stroke-width="1" fill="none" fill-rule="evenodd">
        <g id="tip_success" fill-rule="nonzero">
            <circle id="椭圆形" fill="#FFFFFF" cx="16" cy="16" r="12"></circle>
            <path d="M16,0 C7.1625,0 0,7.1625 0,16 C0,24.8375 7.1625,32 16,32 C24.8375,32 32,24.8375 32,16 C32,7.1625 24.8375,0 16,0 Z M24.134375,11.1375 L12.9,22.409375 L12.8875,22.421875 C12.8125,22.503125 12.721875,22.575 12.621875,22.63125 C12.446875,22.73125 12.253125,22.778125 12.065625,22.778125 C11.675,22.778125 11.29375,22.575 11.0875,22.209375 L7.684375,16.259375 C7.375,15.71875 7.5625,15.03125 8.103125,14.725 C8.64375,14.415625 9.33125,14.603125 9.6375,15.14375 L12.30625,19.815625 L22.540625,9.55 C22.978125,9.109375 23.690625,9.109375 24.13125,9.546875 C24.571875,9.9875 24.571875,10.7 24.134375,11.1375 L24.134375,11.1375 Z" id="形状" fill="#11C61D"></path>
        </g>
    </g>
</svg>