
<svg width="32px" height="32px" viewBox="0 0 32 32" version="1.1" xmlns="http://www.w3.org/2000/svg" xmlns:xlink="http://www.w3.org/1999/xlink">
    <g id="页面-1" stroke="none" stroke-width="1" fill="none" fill-rule="evenodd">
        <g id="tip_error" fill-rule="nonzero">
            <circle id="椭圆形" fill="#FFFFFF" cx="16" cy="16" r="12"></circle>
            <circle id="椭圆形备份" fill="#FFFFFF" cx="16" cy="16" r="12"></circle>
            <path d="M16,0 C7.1625,0 0,7.1625 0,16 C0,24.8375 7.1625,32 16,32 C24.8375,32 32,24.8375 32,16 C32,7.1625 24.8375,0 16,0 Z M22.415625,20.840625 C22.853125,21.28125 22.853125,21.99375 22.4125,22.43125 C22.19375,22.65 21.90625,22.759375 21.61875,22.759375 C21.33125,22.759375 21.040625,22.65 20.821875,22.428125 L16,17.59375 L11.178125,22.428125 C10.959375,22.65 10.66875,22.759375 10.38125,22.759375 C10.09375,22.759375 9.80625,22.65 9.5875,22.43125 C9.146875,21.99375 9.146875,21.28125 9.584375,20.840625 L14.4125,16 L9.584375,11.159375 C9.146875,10.71875 9.146875,10.00625 9.5875,9.56875 C10.028125,9.13125 10.740625,9.13125 11.178125,9.571875 L16,14.40625 L20.821875,9.56875 C21.259375,9.128125 21.971875,9.128125 22.4125,9.565625 C22.853125,10.003125 22.853125,10.715625 22.415625,11.15625 L17.5875,16 L22.415625,20.840625 Z" id="形状" fill="#ED452F"></path>
        </g>
    </g>
</svg>